<svg width="96" height="32" viewBox="0 0 96 32" fill="none" xmlns="http://www.w3.org/2000/svg">
<path fill-rule="evenodd" clip-rule="evenodd" d="M2 6C0.895431 6 0 6.89543 0 8V23C0 24.1046 0.89543 25 2 25H15C16.1046 25 17 24.1046 17 23V17.4142L11.3431 23.0711C10.9526 23.4616 10.3195 23.4616 9.92893 23.0711C9.53841 22.6805 9.53841 22.0474 9.92893 21.6569L14.5858 17H5V15H14.5858L9.92893 10.3431C9.53841 9.95262 9.53841 9.31946 9.92893 8.92893C10.3195 8.53841 10.9526 8.53841 11.3431 8.92893L17 14.5858V8C17 6.89543 16.1046 6 15 6H2Z" fill="#D30808"/>
<path d="M20.696 8.2H27.272V8.896C26.888 9.04 26.504 9.168 26.12 9.28C25.736 9.376 25.352 9.448 24.968 9.496V23.752H30.488L31.904 19.888H32.528C32.576 20.224 32.616 20.616 32.648 21.064C32.696 21.496 32.728 21.952 32.744 22.432C32.776 22.896 32.792 23.352 32.792 23.8C32.792 24.248 32.784 24.648 32.768 25H20.696V24.304C21.08 24.128 21.432 24 21.752 23.92C22.072 23.84 22.376 23.776 22.664 23.728V9.496C22.296 9.432 21.944 9.352 21.608 9.256C21.272 9.144 20.968 9.024 20.696 8.896V8.2ZM34.1559 19C34.1559 17.992 34.2839 17.104 34.5399 16.336C34.8119 15.552 35.1959 14.896 35.6919 14.368C36.1879 13.824 36.7799 13.416 37.4679 13.144C38.1719 12.856 38.9479 12.712 39.7959 12.712C40.7879 12.712 41.6439 12.864 42.3639 13.168C43.0839 13.472 43.6679 13.904 44.1159 14.464C44.5799 15.008 44.9159 15.664 45.1239 16.432C45.3479 17.2 45.4599 18.056 45.4599 19C45.4599 21.016 44.9479 22.568 43.9239 23.656C42.8999 24.744 41.5239 25.288 39.7959 25.288C38.8359 25.288 38.0039 25.144 37.2999 24.856C36.5959 24.552 36.0119 24.128 35.5479 23.584C35.0839 23.024 34.7319 22.36 34.4919 21.592C34.2679 20.808 34.1559 19.944 34.1559 19ZM36.4599 19C36.4599 19.72 36.5239 20.4 36.6519 21.04C36.7959 21.68 37.0119 22.24 37.2999 22.72C37.6039 23.184 37.9959 23.552 38.4759 23.824C38.9559 24.096 39.5319 24.232 40.2039 24.232C41.0679 24.232 41.7719 23.808 42.3159 22.96C42.8759 22.112 43.1559 20.792 43.1559 19C43.1559 18.264 43.0839 17.584 42.9399 16.96C42.8119 16.32 42.6039 15.768 42.3159 15.304C42.0279 14.824 41.6599 14.448 41.2119 14.176C40.7639 13.904 40.2279 13.768 39.6039 13.768C38.6599 13.768 37.8999 14.192 37.3239 15.04C36.7479 15.888 36.4599 17.208 36.4599 19ZM52.3655 12.712C53.2295 12.712 53.9575 12.8 54.5495 12.976C55.1415 13.136 55.6375 13.392 56.0375 13.744C56.9815 13.104 57.9655 12.64 58.9895 12.352C59.1175 12.528 59.2055 12.744 59.2535 13C59.3175 13.256 59.3495 13.496 59.3495 13.72L59.0375 14.296H56.5175C56.9175 14.872 57.1175 15.632 57.1175 16.576C57.1175 17.728 56.7095 18.664 55.8935 19.384C55.0935 20.104 53.9175 20.464 52.3655 20.464C52.0615 20.464 51.8135 20.456 51.6215 20.44C51.4295 20.424 51.2135 20.4 50.9735 20.368C50.8935 20.512 50.7975 20.672 50.6855 20.848C50.5895 21.024 50.5415 21.208 50.5415 21.4C50.5415 21.72 50.7255 21.976 51.0935 22.168C51.4615 22.344 51.9175 22.504 52.4615 22.648C53.0215 22.792 53.6215 22.944 54.2615 23.104C54.9175 23.248 55.5255 23.456 56.0855 23.728C56.6455 23.984 57.1095 24.328 57.4775 24.76C57.8615 25.176 58.0615 25.72 58.0775 26.392C58.0935 26.968 57.9575 27.488 57.6695 27.952C57.3975 28.416 57.0135 28.8 56.5175 29.104C56.0215 29.424 55.4215 29.664 54.7175 29.824C54.0295 30 53.2695 30.088 52.4375 30.088C50.6935 30.088 49.3735 29.792 48.4775 29.2C47.5975 28.608 47.1575 27.864 47.1575 26.968C47.1575 26.536 47.2215 26.16 47.3495 25.84C47.4935 25.52 47.6935 25.24 47.9495 25C48.2055 24.76 48.5255 24.552 48.9095 24.376C49.2935 24.184 49.7335 24.008 50.2295 23.848C49.8775 23.688 49.5815 23.472 49.3415 23.2C49.1175 22.912 49.0055 22.568 49.0055 22.168C49.0055 21.8 49.1575 21.44 49.4615 21.088C49.7815 20.72 50.1015 20.432 50.4215 20.224C49.5095 19.984 48.8055 19.528 48.3095 18.856C47.8295 18.184 47.5895 17.424 47.5895 16.576C47.5895 16.032 47.6935 15.528 47.9015 15.064C48.1095 14.584 48.4135 14.168 48.8135 13.816C49.2135 13.464 49.7095 13.192 50.3015 13C50.8935 12.808 51.5815 12.712 52.3655 12.712ZM55.9175 26.944C55.9175 26.432 55.7415 26.024 55.3895 25.72C55.0535 25.416 54.6295 25.168 54.1175 24.976C53.6055 24.784 53.0535 24.624 52.4615 24.496C51.8695 24.368 51.3175 24.224 50.8055 24.064C50.1975 24.432 49.7975 24.816 49.6055 25.216C49.4135 25.632 49.3175 26.056 49.3175 26.488C49.3175 27.336 49.6215 27.968 50.2295 28.384C50.8375 28.816 51.7175 29.032 52.8695 29.032C53.4615 29.032 53.9495 28.976 54.3335 28.864C54.7335 28.752 55.0455 28.6 55.2695 28.408C55.5095 28.232 55.6775 28.016 55.7735 27.76C55.8695 27.504 55.9175 27.232 55.9175 26.944ZM49.7495 16.576C49.7495 16.96 49.7895 17.328 49.8695 17.68C49.9655 18.016 50.1095 18.312 50.3015 18.568C50.5095 18.824 50.7815 19.032 51.1175 19.192C51.4535 19.336 51.8695 19.408 52.3655 19.408C53.2935 19.408 53.9575 19.136 54.3575 18.592C54.7575 18.048 54.9575 17.376 54.9575 16.576C54.9575 15.712 54.7575 15.032 54.3575 14.536C53.9735 14.024 53.3095 13.768 52.3655 13.768C51.3895 13.768 50.7095 14.016 50.3255 14.512C49.9415 14.992 49.7495 15.68 49.7495 16.576ZM60.0543 19C60.0543 17.992 60.1823 17.104 60.4383 16.336C60.7103 15.552 61.0943 14.896 61.5903 14.368C62.0863 13.824 62.6783 13.416 63.3663 13.144C64.0703 12.856 64.8463 12.712 65.6943 12.712C66.6863 12.712 67.5423 12.864 68.2623 13.168C68.9823 13.472 69.5663 13.904 70.0143 14.464C70.4783 15.008 70.8143 15.664 71.0223 16.432C71.2463 17.2 71.3583 18.056 71.3583 19C71.3583 21.016 70.8463 22.568 69.8223 23.656C68.7983 24.744 67.4223 25.288 65.6943 25.288C64.7343 25.288 63.9023 25.144 63.1983 24.856C62.4943 24.552 61.9103 24.128 61.4463 23.584C60.9823 23.024 60.6303 22.36 60.3903 21.592C60.1663 20.808 60.0543 19.944 60.0543 19ZM62.3583 19C62.3583 19.72 62.4223 20.4 62.5503 21.04C62.6943 21.68 62.9103 22.24 63.1983 22.72C63.5023 23.184 63.8943 23.552 64.3743 23.824C64.8543 24.096 65.4303 24.232 66.1023 24.232C66.9663 24.232 67.6703 23.808 68.2143 22.96C68.7743 22.112 69.0543 20.792 69.0543 19C69.0543 18.264 68.9823 17.584 68.8383 16.96C68.7103 16.32 68.5023 15.768 68.2143 15.304C67.9263 14.824 67.5583 14.448 67.1103 14.176C66.6623 13.904 66.1263 13.768 65.5023 13.768C64.5583 13.768 63.7983 14.192 63.2223 15.04C62.6463 15.888 62.3583 17.208 62.3583 19ZM74.1839 20.248C74.1839 19.24 74.2079 18.256 74.2559 17.296C74.3039 16.32 74.3279 15.352 74.3279 14.392L72.7439 14.2V13.576C73.2559 13.384 73.7759 13.216 74.3039 13.072C74.8479 12.928 75.3759 12.808 75.8879 12.712H76.4879C76.4879 13.912 76.4639 15.104 76.4159 16.288C76.3679 17.472 76.3439 18.648 76.3439 19.816C76.3439 20.44 76.3759 21 76.4399 21.496C76.5199 21.992 76.6479 22.408 76.8239 22.744C77.0159 23.08 77.2719 23.344 77.5919 23.536C77.9119 23.712 78.3199 23.8 78.8159 23.8C79.5359 23.8 80.1359 23.544 80.6159 23.032C81.1119 22.504 81.4959 21.824 81.7679 20.992V14.392L80.2079 14.2V13.576C80.7039 13.384 81.2159 13.216 81.7439 13.072C82.2879 12.928 82.8159 12.808 83.3279 12.712H83.9279V23.632L85.5119 23.824V24.328C85.0479 24.536 84.5759 24.72 84.0959 24.88C83.6319 25.04 83.1439 25.16 82.6319 25.24H82.0319L81.8639 22.384H81.7679C81.6879 22.72 81.5439 23.064 81.3359 23.416C81.1439 23.752 80.8879 24.064 80.5679 24.352C80.2479 24.624 79.8799 24.848 79.4639 25.024C79.0639 25.2 78.6239 25.288 78.1439 25.288C77.5039 25.288 76.9359 25.208 76.4399 25.048C75.9599 24.904 75.5519 24.64 75.2159 24.256C74.8799 23.872 74.6239 23.36 74.4479 22.72C74.2719 22.064 74.1839 21.24 74.1839 20.248ZM86.4772 13.576C87.0852 13.192 87.7252 12.92 88.3972 12.76V10.72C88.6052 10.544 88.8452 10.392 89.1172 10.264C89.4052 10.12 89.6852 9.984 89.9572 9.856H90.5572V13H94.1572V14.2H90.5572V21.16C90.5572 22.12 90.7092 22.8 91.0132 23.2C91.3172 23.6 91.7732 23.8 92.3812 23.8C92.6692 23.8 93.0292 23.784 93.4612 23.752C93.8932 23.704 94.2612 23.624 94.5652 23.512L94.7332 23.872C94.6052 24.016 94.4212 24.168 94.1812 24.328C93.9572 24.488 93.6932 24.64 93.3892 24.784C93.1012 24.928 92.7812 25.048 92.4292 25.144C92.0772 25.24 91.7172 25.288 91.3492 25.288C90.3892 25.288 89.6532 25.016 89.1412 24.472C88.6452 23.928 88.3972 23.048 88.3972 21.832V14.2H86.4772V13.576Z" fill="#D30808"/>
</svg>
