<svg width="22" height="27" viewBox="0 0 22 27" fill="none" xmlns="http://www.w3.org/2000/svg">
<rect x="8.46155" y="20.9032" width="5.07692" height="6.09678" rx="1" fill="#E3E3E3" fill-opacity="0.82"/>
<path d="M22 11.787C22 13.2205 21.7155 14.64 21.1627 15.9644C20.6099 17.2888 19.7996 18.4922 18.7782 19.5058C17.7567 20.5195 16.5441 21.3236 15.2095 21.8721C13.8749 22.4207 12.4445 22.7031 11 22.7031C9.55546 22.7031 8.12506 22.4207 6.79048 21.8721C5.4559 21.3236 4.24327 20.5195 3.22182 19.5058C2.20038 18.4922 1.39013 17.2888 0.837325 15.9644C0.284523 14.64 -1.26286e-07 13.2205 0 11.787L3.35357 11.787C3.35357 12.7835 3.55135 13.7702 3.93562 14.6909C4.31989 15.6115 4.88312 16.448 5.59316 17.1526C6.30319 17.8572 7.14613 18.4162 8.07384 18.7975C9.00155 19.1788 9.99586 19.3751 11 19.3751C12.0041 19.3751 12.9985 19.1788 13.9262 18.7975C14.8539 18.4162 15.6968 17.8572 16.4068 17.1526C17.1169 16.448 17.6801 15.6115 18.0644 14.6909C18.4486 13.7702 18.6464 12.7835 18.6464 11.787H22Z" fill="#ECECEC" fill-opacity="0.83"/>
<g style="mix-blend-mode:color-dodge">
<rect x="4.55618" width="12.8876" height="18.0893" rx="6.44379" fill="#FFF9F9" fill-opacity="0.82"/>
</g>
<ellipse cx="6.70414" cy="6.02977" rx="0.715976" ry="0.602978" fill="#181111"/>
<ellipse cx="8.85205" cy="4.22084" rx="0.715976" ry="0.602978" fill="#181111"/>
<ellipse cx="8.85205" cy="6.02977" rx="0.715976" ry="0.602978" fill="#181111"/>
<ellipse cx="11" cy="4.22084" rx="0.715976" ry="0.602978" fill="#181111"/>
<ellipse cx="13.1479" cy="6.02977" rx="0.715976" ry="0.602978" fill="#181111"/>
<ellipse cx="13.1479" cy="4.22084" rx="0.715976" ry="0.602978" fill="#181111"/>
<path d="M12.7899 2.49257C12.7899 2.82559 12.4694 3.09555 12.074 3.09555C11.6785 3.09555 11.358 2.82559 11.358 2.49257C11.358 2.15956 11.6785 1.8896 12.074 1.8896C12.4694 1.8896 12.7899 2.15956 12.7899 2.49257Z" fill="#181111"/>
<path d="M10.642 2.41191C10.642 2.74492 10.3215 3.01488 9.92603 3.01488C9.53061 3.01488 9.21005 2.74492 9.21005 2.41191C9.21005 2.07889 9.53061 1.80893 9.92603 1.80893C10.3215 1.80893 10.642 2.07889 10.642 2.41191Z" fill="#181111"/>
<ellipse cx="11" cy="6.02977" rx="0.715976" ry="0.602978" fill="#181111"/>
<ellipse cx="15.2958" cy="6.02977" rx="0.715976" ry="0.602978" fill="#181111"/>
</svg>
