<svg width="65" height="60" viewBox="0 0 65 60" fill="none" xmlns="http://www.w3.org/2000/svg">
<path d="M62.5 30C62.5 46.2846 49.0764 59.5 32.5 59.5C15.9236 59.5 2.5 46.2846 2.5 30C2.5 13.7154 15.9236 0.5 32.5 0.5C49.0764 0.5 62.5 13.7154 62.5 30Z" fill="#F3E7E7" stroke="black"/>
<path d="M52.5 15C52.5 18.9168 49.6535 22 46.25 22C42.8465 22 40 18.9168 40 15C40 11.0832 42.8465 8 46.25 8C49.6535 8 52.5 11.0832 52.5 15Z" fill="#D30808" stroke="black"/>
<path d="M25.3662 28L2 55H44L34.6831 41.5L25.3662 28Z" fill="#D30808" stroke="black"/>
<path d="M43.1769 38L16 55H63L43.1769 38Z" fill="#D30808" stroke="black"/>
</svg>
